<?xml version="1.0" encoding="UTF-8"?><svg id="Layer_2" xmlns="http://www.w3.org/2000/svg" viewBox="0 0 681.97 324.13"><defs><style>.cls-1{fill:none;}.cls-2{fill:#2c17a5;}</style></defs><g id="Layer_1-2"><g id="IMC"><rect class="cls-2" y="26.63" width="57.24" height="291.85"/><polygon class="cls-2" points="387.25 134.77 387.25 318.48 330.01 318.48 330.01 211.97 387.25 134.77"/><polygon class="cls-2" points="438.9 0 437.66 90.64 412.99 70.45 236.72 313.72 236.34 313.72 161.8 211.49 150.06 198.18 150.07 318.48 92.83 318.48 92.83 26.63 96.01 26.63 150.07 101.2 150.06 101.22 161.8 117.39 236.53 214.78 372.53 37.31 372.52 37.3 344.09 14.03 438.9 0"/><path class="cls-2" d="M649.11,234.21l32.86,46.28c-25.09,24.91-55.65,43.64-98.76,43.64-82.15,0-148.94-67.66-148.94-147.69S501.94,28.03,582.15,28.03c37.1,.53,69.96,15.2,99.82,43.99l-33.04,45.05c-19.43-19.08-42.75-30.74-67.31-30.74-45.76,0-89.4,40.64-89.4,90.46s45.23,89.92,89.22,89.92c26.15,0,48.76-13.95,67.67-32.5Z"/><line class="cls-1" x1="374.58" y1="106.07" x2="374.26" y2="106.27"/></g></g></svg>